<?xml version="1.0" encoding="utf-8"?>
<!-- Generator: Adobe Illustrator 23.0.0, SVG Export Plug-In . SVG Version: 6.00 Build 0)  -->
<svg version="1.1" id="Capa_1" xmlns="http://www.w3.org/2000/svg" xmlns:xlink="http://www.w3.org/1999/xlink" x="0px" y="0px"
	 viewBox="0 0 129.082 209.001" enable-background="new 0 0 129.082 209.001" xml:space="preserve">
<g>
	<path fill="#040006" d="M61.227,151.429c-16.161,1.13-28.542,14.727-28.224,30.744c0,0,0.04,2.002,1.935,1.87
		s1.556-2.114,1.556-2.114c-0.079-14.029,10.712-26.011,24.977-27.008c14.764-1.032,27.672,10.094,28.711,24.958
		c0.767,10.973-5.254,20.917-14.445,25.67c0,0-1.854,0.731-1.243,2.292c0.617,1.661,2.179,1.051,2.179,1.051
		c10.759-5.263,17.879-16.688,17.001-29.257C92.502,162.875,77.886,150.264,61.227,151.429z"/>
	<path fill="#419F8D" d="M80.603,179.511c0.29,2.004,0.265,4.043-0.151,6c-1.996,9.39-11.268,15.496-20.756,13.479
		c-9.39-1.996-15.496-11.268-13.479-20.756c1.663-7.825,8.338-13.256,15.915-13.792c0,0,1.55-0.079,1.296-1.769
		c-0.142-1.257-1.574-1.255-1.574-1.255c-8.834,0.678-16.639,7.096-18.593,16.29c-2.349,11.053,4.737,21.965,15.79,24.314
		c11.053,2.349,21.965-4.737,24.314-15.79c0.499-2.348,0.586-4.68,0.24-6.901c0,0-0.177-1.571-1.532-1.45
		C80.405,178.038,80.603,179.511,80.603,179.511z"/>
	<path fill="#4CA393" d="M39.788,46.066c0,1.015,0,1.922,0,2.84c0,2.052-0.011,4.103,0.011,6.155c0,0.313-0.086,0.475-0.389,0.594
		c-4.254,1.663-8.649,2.376-13.217,1.922c-7.613-0.745-13.962-4.006-19.026-9.718c-3.79-4.265-6.101-9.254-6.868-14.912
		c-1.091-7.991,0.799-15.258,5.712-21.661c4.406-5.734,10.193-9.394,17.309-10.712c9.707-1.792,18.227,0.788,25.483,7.472
		c0.734,0.68,1.404,1.436,2.062,2.203c1.555,1.803,1.361,4.481-0.41,5.993c-1.792,1.533-4.438,1.339-5.993-0.475
		c-2.807-3.272-6.274-5.496-10.453-6.619c-11.154-2.991-22.795,4.2-25.105,15.528c-2.246,10.982,4.557,21.596,15.452,24.058
		c5.269,1.188,10.247,0.335,14.912-2.376C39.41,46.282,39.55,46.195,39.788,46.066z"/>
	<path fill="#4CA393" d="M53.749,46.185c0,0.756,0,1.436,0,2.116c0,1.728,0.011,3.455,0,5.183c-0.022,2.224-1.663,4.017-3.844,4.2
		c-2.214,0.184-4.157-1.296-4.557-3.488c-0.043-0.259-0.054-0.54-0.054-0.81c0-3.779-0.011-7.559,0-11.338
		c0-2.516,1.836-4.352,4.373-4.352c6.371-0.011,12.742,0.022,19.113-0.011c6.101-0.032,11.77-4.287,13.573-10.118
		c2.019-6.554-0.475-13.325-6.274-16.931c-2.192-1.361-4.611-2.116-7.202-2.127c-4.567-0.032-9.135-0.022-13.713-0.011
		c-0.324,0-0.561-0.065-0.788-0.346c-2.537-3.239-5.583-5.885-9.157-7.926c-0.065-0.032-0.119-0.076-0.27-0.173
		c0.227-0.022,0.367-0.032,0.518-0.032c7.721,0,15.441-0.022,23.151,0c10.863,0.032,20.387,7.926,22.471,18.573
		c2.289,11.835-4.708,23.302-16.305,26.693c-2.116,0.615-4.287,0.896-6.5,0.896c-4.611,0.011-9.211,0-13.822,0
		C54.257,46.185,54.041,46.185,53.749,46.185z"/>
	<path fill="#4CA393" d="M79.47,48.841c2.656-1.177,5.075-2.743,7.224-4.643c6.965,5.421,14.48,6.652,22.492,2.818
		c5.842-2.797,9.351-7.613,10.927-13.983c-0.27,0-0.453,0-0.648,0c-3.704,0-7.407,0.011-11.122,0
		c-2.494-0.011-4.384-1.955-4.308-4.416c0.065-2.224,1.911-4.049,4.222-4.06c5.507-0.032,11.014-0.032,16.51,0
		c2.43,0.011,4.211,1.9,4.211,4.341c0.022,13.087-8.995,24.749-21.823,27.859c-10.377,2.505-19.523-0.108-27.308-7.429
		c-0.119-0.108-0.227-0.227-0.335-0.356C79.502,48.949,79.502,48.906,79.47,48.841z"/>
	<path fill="#4CA393" d="M92.925,9.914c-1.404-2.581-3.132-4.859-5.28-6.954c0.734-0.313,1.382-0.648,2.062-0.896
		c10.377-3.812,19.965-2.343,28.701,4.406c1.393,1.08,2.624,2.408,3.822,3.715c1.674,1.825,1.469,4.492-0.345,6.069
		c-1.793,1.555-4.438,1.296-6.069-0.562c-4.524-5.151-10.226-7.526-17.061-7.138C96.769,8.661,94.858,9.18,92.925,9.914z"/>
	<path fill="#040006" d="M102.535,71.214c0,0.421,0,0.702,0,0.983c0,1.512,0,3.024,0,4.535c0,0.562-0.367,0.961-0.864,0.972
		c-0.486,0.011-0.864-0.399-0.864-0.961c0-2.732,0-5.464,0-8.196c0-0.443,0.173-0.778,0.605-0.907
		c0.421-0.13,0.756,0.032,1.015,0.399c1.231,1.782,2.484,3.553,3.725,5.334c0.13,0.183,0.259,0.367,0.486,0.67
		c0-0.929,0-1.717,0-2.494c0-0.993-0.043-1.976,0.022-2.969c0.022-0.303,0.248-0.67,0.508-0.853c0.183-0.13,0.604-0.097,0.82,0.032
		c0.195,0.119,0.357,0.464,0.367,0.713c0.022,2.764,0.011,5.539,0.022,8.304c0,0.432-0.184,0.723-0.583,0.864
		c-0.432,0.151-0.766-0.033-1.015-0.389c-1.263-1.803-2.527-3.617-3.79-5.421C102.859,71.657,102.74,71.495,102.535,71.214z"/>
	<path fill="#040006" d="M95.084,72.64c0-1.825-1.382-3.315-3.088-3.326c-1.728-0.011-3.164,1.523-3.153,3.337
		c0.022,1.814,1.436,3.304,3.142,3.304C93.702,75.944,95.084,74.476,95.084,72.64z M96.812,72.651c0,2.775-2.192,5.096-4.848,5.053
		c-2.807-0.054-4.838-2.246-4.838-5.064c0-3.067,2.451-5.107,4.956-5.043C94.62,67.651,96.866,69.886,96.812,72.651z"/>
	<path fill="#040006" d="M29.216,72.619c-0.011-1.836-1.436-3.304-3.185-3.294c-1.674,0.011-3.121,1.555-3.067,3.358
		c0.054,1.879,1.425,3.293,3.153,3.272C27.834,75.933,29.227,74.422,29.216,72.619z M26.074,67.597c2.678,0,4.87,2.268,4.87,5.032
		c0,2.764-2.181,5.054-4.848,5.086c-2.624,0.032-4.87-2.3-4.87-5.053C21.226,69.876,23.407,67.597,26.074,67.597z"/>
	<path fill="#040006" d="M36.689,75.944c1.393,0.065,2.808,0.205,3.574-1.199c0.788-1.436,0.799-2.991-0.108-4.384
		c-0.821-1.263-2.17-1.069-3.466-1.015C36.689,71.549,36.689,73.72,36.689,75.944z M34.939,72.64c0-1.35,0-2.7,0-4.049
		c0-0.724,0.281-1.015,1.015-0.993c0.983,0.022,1.987-0.032,2.948,0.108c1.9,0.281,3.164,1.609,3.488,3.498
		c0.216,1.274,0.205,2.538-0.27,3.758c-0.702,1.814-2.127,2.624-3.995,2.732c-0.713,0.043-1.436,0.021-2.16,0
		c-0.734-0.011-1.015-0.324-1.026-1.069C34.939,75.307,34.939,73.968,34.939,72.64z"/>
	<path fill="#040006" d="M12.684,72.575c0.151,0.011,0.259,0.032,0.367,0.032c0.432-0.011,0.864,0,1.296-0.032
		c0.799-0.065,1.274-0.562,1.382-1.393c0.108-0.875-0.259-1.555-1.069-1.739c-0.626-0.14-1.296-0.108-1.965-0.162
		C12.684,70.437,12.684,71.474,12.684,72.575z M15.827,73.957c0.486,0.778,0.95,1.523,1.415,2.268
		c0.356,0.572,0.27,1.069-0.205,1.36c-0.432,0.259-0.918,0.097-1.263-0.443c-0.464-0.724-0.939-1.436-1.361-2.192
		c-0.248-0.454-0.54-0.67-1.058-0.583c-0.194,0.032-0.389,0-0.68,0c0,0.68,0.011,1.339,0,1.998c0,0.248-0.011,0.507-0.076,0.745
		c-0.119,0.421-0.454,0.604-0.864,0.583c-0.41-0.022-0.702-0.259-0.767-0.691c-0.022-0.173-0.032-0.357-0.032-0.54
		c0-2.538,0-5.064,0-7.602c0-1.026,0.227-1.263,1.274-1.253c0.864,0.011,1.728-0.011,2.57,0.108
		c1.296,0.184,2.214,0.939,2.548,2.224c0.367,1.371,0.065,2.624-1.004,3.628C16.172,73.687,16.01,73.806,15.827,73.957z"/>
	<path fill="#040006" d="M114.121,75.966c1.102,0,2.16,0,3.217,0c0.216,0,0.432,0,0.648,0.032c0.454,0.065,0.702,0.367,0.734,0.799
		c0.021,0.421-0.205,0.81-0.616,0.821c-1.706,0.043-3.412,0.043-5.107,0c-0.41-0.011-0.626-0.41-0.626-0.821
		c-0.011-2.775-0.011-5.539,0-8.315c0-0.551,0.378-0.896,0.929-0.896c1.49-0.011,2.991-0.011,4.481,0
		c0.573,0,0.972,0.378,0.95,0.875c-0.011,0.475-0.432,0.853-0.983,0.853c-1.134,0.011-2.268,0-3.402,0
		c-0.065,0-0.14,0.022-0.226,0.032c0,0.81,0,1.588,0,2.451c0.885,0,1.782,0,2.667,0c0.702,0,1.08,0.281,1.08,0.821
		c0,0.54-0.432,0.885-1.113,0.896c-0.863,0-1.727,0-2.623,0C114.121,74.335,114.121,75.113,114.121,75.966z"/>
	<path fill="#040006" d="M53.685,71.42c-0.054,1.145,0,2.311-0.184,3.434c-0.313,1.89-1.738,2.872-3.488,2.84
		c-1.846-0.032-3.121-1.145-3.401-3.023c-0.14-0.918-0.097-1.857-0.119-2.786c-0.022-1.102-0.011-2.192,0-3.293
		c0-0.648,0.313-1.004,0.853-1.004c0.518,0,0.864,0.4,0.875,1.015c0.011,1.782-0.011,3.564,0.011,5.345
		c0.011,1.339,0.983,2.171,2.246,1.954c0.799-0.14,1.414-0.907,1.425-1.9c0.022-1.706,0.011-3.412,0.011-5.129
		c0-0.162-0.011-0.324,0.011-0.486c0.076-0.497,0.464-0.821,0.918-0.799c0.464,0.022,0.777,0.367,0.777,0.907
		c0.011,0.972,0,1.944,0,2.916C53.642,71.42,53.663,71.42,53.685,71.42z"/>
	<path fill="#040006" d="M2.146,72.597c0.529,0,1.026,0.011,1.523,0c1.091-0.022,1.458-0.745,1.555-1.631
		c0.086-0.789-0.464-1.479-1.328-1.609c-0.572-0.086-1.166-0.011-1.738-0.011C2.146,70.448,2.146,71.506,2.146,72.597z M2.124,74.4
		c0,0.756,0,1.512,0,2.257c0,0.616-0.346,1.026-0.842,1.037c-0.518,0.011-0.885-0.421-0.885-1.058c0-2.656,0-5.323,0-7.98
		c0-0.766,0.313-1.091,1.08-1.058c1.091,0.043,2.203,0.011,3.25,0.237c1.415,0.313,2.386,1.847,2.246,3.218
		c-0.194,1.89-1.274,3.088-2.915,3.239C3.431,74.346,2.804,74.357,2.124,74.4z"/>
	<path fill="#040006" d="M74.622,67.478c0.68,0.183,1.382,0.324,2.052,0.562c0.702,0.248,0.939,0.756,0.702,1.274
		c-0.227,0.497-0.724,0.605-1.382,0.302c-1.836-0.81-3.92,0.076-4.535,1.955c-0.443,1.361-0.119,2.57,0.928,3.52
		c1.08,0.961,2.322,1.08,3.661,0.551c0.259-0.108,0.626-0.194,0.853-0.086c0.248,0.119,0.551,0.486,0.529,0.713
		c-0.032,0.313-0.291,0.713-0.572,0.864c-1.685,0.961-4.114,0.648-5.561-0.67c-1.587-1.447-2.149-3.25-1.522-5.302
		c0.615-2.041,2.095-3.175,4.179-3.553c0.205-0.032,0.432,0,0.648,0C74.6,67.565,74.611,67.521,74.622,67.478z"/>
	<path fill="#040006" d="M62.734,67.468c0.723,0.216,1.468,0.389,2.181,0.659c0.572,0.216,0.756,0.723,0.529,1.22
		c-0.194,0.432-0.713,0.594-1.242,0.335c-1.684-0.821-3.466-0.119-4.308,1.166c-0.799,1.242-0.713,2.775,0.227,3.941
		c0.832,1.026,2.43,1.447,3.715,0.983c0.151-0.054,0.292-0.129,0.443-0.194c0.464-0.194,0.961-0.043,1.166,0.356
		c0.205,0.4,0.022,0.94-0.421,1.188c-1.641,0.95-4.071,0.713-5.529-0.561c-1.587-1.371-2.235-3.099-1.706-5.151
		c0.562-2.159,2.041-3.369,4.201-3.79c0.227-0.043,0.464-0.011,0.702-0.011C62.712,67.565,62.723,67.511,62.734,67.468z"/>
	<path fill="#040006" d="M125.664,77.737c-1.209-0.119-2.127-0.605-2.753-1.62c-0.335-0.551-0.259-1.101,0.183-1.382
		c0.453-0.292,0.907-0.151,1.285,0.454c0.41,0.659,1.037,0.81,1.728,0.691c0.604-0.108,1.004-0.497,1.198-1.101
		c0.151-0.464-0.043-0.799-0.388-1.015c-0.475-0.302-0.994-0.562-1.512-0.788c-0.788-0.345-1.512-0.756-1.911-1.555
		c-0.853-1.706,0.389-3.736,2.321-3.834c0.713-0.032,1.393,0.065,2.009,0.443c0.54,0.335,0.723,0.821,0.475,1.253
		c-0.259,0.464-0.778,0.561-1.339,0.237c-0.453-0.259-0.907-0.291-1.393-0.108c-0.702,0.27-0.853,1.048-0.27,1.533
		c0.227,0.194,0.529,0.281,0.799,0.421c0.627,0.335,1.328,0.583,1.879,1.004c1.998,1.522,1.005,4.157-0.723,4.913
		C126.755,77.521,126.194,77.596,125.664,77.737z"/>
	<path fill="#040006" d="M81.446,72.64c0-1.328,0-2.656,0-3.984c0-0.691,0.313-1.069,0.853-1.058
		c0.507,0.011,0.842,0.389,0.842,1.037c0.011,2.678,0.011,5.356,0,8.023c0,0.659-0.324,1.026-0.842,1.047
		c-0.529,0.011-0.853-0.389-0.853-1.069C81.446,75.296,81.446,73.968,81.446,72.64z"/>
</g>
</svg>
