<?xml version="1.0" encoding="utf-8"?>
<!-- Generator: Adobe Illustrator 23.0.0, SVG Export Plug-In . SVG Version: 6.00 Build 0)  -->
<svg version="1.1" id="Capa_1" xmlns="http://www.w3.org/2000/svg" xmlns:xlink="http://www.w3.org/1999/xlink" x="0px" y="0px"
	 viewBox="0 0 145.538 87.647" enable-background="new 0 0 145.538 87.647" xml:space="preserve">
<g>
	<path fill="#2ad0a8" d="M44.86,51.939c0,1.144,0,2.167,0,3.202c0,2.313-0.012,4.626,0.012,6.94c0,0.353-0.097,0.536-0.438,0.67
		c-4.797,1.875-9.752,2.678-14.902,2.167C20.949,64.077,13.79,60.4,8.08,53.96c-4.273-4.809-6.879-10.434-7.743-16.813
		c-1.23-9.009,0.901-17.203,6.44-24.422C11.745,6.259,18.271,2.132,26.294,0.647c10.945-2.021,20.551,0.889,28.732,8.425
		c0.828,0.767,1.583,1.619,2.325,2.484c1.753,2.033,1.534,5.052-0.463,6.757c-2.021,1.729-5.004,1.51-6.757-0.536
		c-3.165-3.689-7.074-6.197-11.785-7.463C25.77,6.941,12.646,15.049,10.04,27.821C7.508,40.202,15.178,52.17,27.462,54.946
		c5.941,1.339,11.554,0.377,16.813-2.678C44.434,52.182,44.592,52.085,44.86,51.939z"/>
	<path fill="#2ad0a8" d="M60.602,52.073c0,0.852,0,1.619,0,2.386c0,1.948,0.012,3.896,0,5.844c-0.024,2.508-1.875,4.529-4.334,4.736
		c-2.496,0.207-4.687-1.461-5.138-3.932c-0.049-0.292-0.061-0.609-0.061-0.913c0-4.261-0.012-8.522,0-12.783
		c0-2.837,2.07-4.906,4.931-4.906c7.183-0.012,14.366,0.024,21.549-0.012c6.879-0.037,13.27-4.833,15.303-11.408
		c2.277-7.39-0.536-15.024-7.074-19.09c-2.471-1.534-5.198-2.386-8.121-2.398c-5.15-0.037-10.3-0.024-15.462-0.012
		c-0.365,0-0.633-0.073-0.889-0.39c-2.861-3.652-6.294-6.635-10.324-8.936c-0.073-0.036-0.134-0.085-0.304-0.195
		c0.256-0.024,0.414-0.037,0.584-0.037c8.705,0,17.41-0.024,26.103,0c12.248,0.037,22.986,8.936,25.336,20.94
		c2.581,13.343-5.308,26.273-18.384,30.096c-2.386,0.694-4.833,1.01-7.329,1.01c-5.199,0.012-10.385,0-15.584,0
		C61.174,52.073,60.931,52.073,60.602,52.073z"/>
	<path fill="#2ad0a8" d="M89.602,55.068c2.995-1.327,5.722-3.092,8.145-5.235c7.853,6.112,16.326,7.5,25.36,3.178
		c6.586-3.153,10.543-8.583,12.32-15.766c-0.304,0-0.511,0-0.73,0c-4.176,0-8.352,0.012-12.54,0
		c-2.813-0.012-4.943-2.204-4.858-4.979c0.073-2.508,2.154-4.565,4.76-4.578c6.209-0.036,12.418-0.036,18.615,0
		c2.739,0.012,4.748,2.143,4.748,4.894c0.024,14.756-10.142,27.904-24.605,31.411c-11.7,2.824-22.012-0.122-30.79-8.376
		c-0.134-0.122-0.256-0.256-0.378-0.402C89.638,55.189,89.638,55.141,89.602,55.068z"/>
	<path fill="#2ad0a8" d="M104.772,11.178c-1.583-2.91-3.531-5.479-5.954-7.841c0.828-0.353,1.559-0.73,2.325-1.01
		c11.7-4.298,22.511-2.642,32.361,4.967c1.57,1.217,2.958,2.715,4.31,4.188c1.887,2.058,1.656,5.065-0.389,6.842
		c-2.021,1.753-5.004,1.461-6.842-0.633c-5.101-5.807-11.529-8.486-19.236-8.047C109.106,9.766,106.951,10.35,104.772,11.178z"/>
	<path fill="#040006" d="M115.608,80.293c0,0.475,0,0.791,0,1.108c0,1.705,0,3.409,0,5.113c0,0.633-0.414,1.084-0.974,1.096
		c-0.548,0.012-0.974-0.45-0.974-1.084c0-3.08,0-6.16,0-9.241c0-0.499,0.195-0.877,0.682-1.022c0.475-0.146,0.852,0.036,1.144,0.45
		c1.388,2.009,2.8,4.006,4.2,6.014c0.146,0.207,0.292,0.414,0.548,0.755c0-1.047,0-1.936,0-2.812c0-1.12-0.049-2.228,0.024-3.348
		c0.024-0.341,0.28-0.755,0.572-0.962c0.207-0.146,0.682-0.11,0.925,0.036c0.219,0.134,0.402,0.524,0.414,0.804
		c0.024,3.116,0.012,6.245,0.024,9.362c0,0.487-0.207,0.815-0.657,0.974c-0.487,0.17-0.864-0.037-1.144-0.438
		c-1.424-2.033-2.849-4.079-4.274-6.112C115.973,80.793,115.839,80.61,115.608,80.293z"/>
	<path fill="#040006" d="M107.207,81.901c0-2.057-1.559-3.737-3.482-3.75c-1.948-0.012-3.567,1.717-3.555,3.762
		c0.025,2.045,1.619,3.725,3.543,3.725C105.648,85.626,107.207,83.97,107.207,81.901z M109.155,81.913
		c0,3.129-2.471,5.746-5.467,5.698c-3.165-0.061-5.454-2.532-5.454-5.71c0-3.458,2.764-5.759,5.588-5.686
		C106.683,76.276,109.215,78.796,109.155,81.913z"/>
	<path fill="#040006" d="M32.941,81.877c-0.012-2.07-1.619-3.726-3.591-3.714c-1.887,0.012-3.519,1.753-3.458,3.786
		c0.061,2.118,1.607,3.713,3.555,3.689C31.383,85.614,32.953,83.91,32.941,81.877z M29.398,76.215c3.019,0,5.491,2.557,5.491,5.673
		c0,3.117-2.459,5.698-5.466,5.734c-2.959,0.036-5.491-2.593-5.491-5.698C23.932,78.784,26.391,76.215,29.398,76.215z"/>
	<path fill="#040006" d="M41.366,85.626c1.571,0.073,3.165,0.231,4.03-1.352c0.889-1.619,0.901-3.372-0.122-4.943
		c-0.925-1.424-2.447-1.205-3.908-1.144C41.366,80.671,41.366,83.118,41.366,85.626z M39.394,81.901c0-1.522,0-3.044,0-4.566
		c0-0.816,0.317-1.144,1.144-1.12c1.108,0.024,2.24-0.037,3.324,0.122c2.143,0.316,3.567,1.814,3.932,3.944
		c0.243,1.437,0.231,2.861-0.304,4.237c-0.791,2.045-2.398,2.959-4.505,3.08c-0.804,0.049-1.619,0.024-2.435,0
		c-0.828-0.012-1.144-0.365-1.157-1.205C39.394,84.908,39.394,83.398,39.394,81.901z"/>
	<path fill="#040006" d="M14.302,81.828c0.17,0.012,0.292,0.036,0.414,0.036c0.487-0.012,0.974,0,1.461-0.036
		c0.901-0.073,1.437-0.633,1.558-1.571c0.122-0.986-0.292-1.753-1.205-1.96c-0.706-0.158-1.461-0.122-2.216-0.182
		C14.302,79.417,14.302,80.586,14.302,81.828z M17.845,83.386c0.548,0.877,1.071,1.717,1.595,2.557
		c0.402,0.645,0.304,1.205-0.231,1.534c-0.487,0.292-1.035,0.11-1.424-0.499c-0.524-0.816-1.059-1.619-1.534-2.471
		c-0.28-0.511-0.609-0.755-1.193-0.657c-0.219,0.036-0.438,0-0.767,0c0,0.767,0.012,1.51,0,2.252c0,0.28-0.012,0.572-0.085,0.84
		c-0.134,0.475-0.511,0.682-0.974,0.657c-0.463-0.024-0.791-0.292-0.864-0.779c-0.024-0.195-0.036-0.402-0.036-0.609
		c0-2.861,0-5.71,0-8.571c0-1.157,0.256-1.424,1.437-1.412c0.974,0.012,1.948-0.012,2.898,0.122
		c1.461,0.207,2.496,1.059,2.873,2.508c0.414,1.546,0.073,2.958-1.132,4.091C18.234,83.082,18.051,83.215,17.845,83.386z"/>
	<path fill="#040006" d="M128.671,85.651c1.242,0,2.435,0,3.628,0c0.244,0,0.487,0,0.73,0.036c0.512,0.073,0.792,0.414,0.828,0.901
		c0.024,0.475-0.231,0.913-0.694,0.925c-1.923,0.049-3.847,0.049-5.758,0c-0.462-0.012-0.706-0.463-0.706-0.925
		c-0.012-3.129-0.012-6.246,0-9.375c0-0.621,0.426-1.011,1.047-1.011c1.68-0.012,3.372-0.012,5.052,0
		c0.646,0,1.095,0.426,1.072,0.986c-0.012,0.536-0.487,0.962-1.108,0.962c-1.278,0.012-2.557,0-3.835,0
		c-0.073,0-0.158,0.024-0.255,0.036c0,0.913,0,1.79,0,2.764c0.998,0,2.009,0,3.007,0c0.791,0,1.218,0.317,1.218,0.925
		c0,0.609-0.487,0.998-1.254,1.01c-0.973,0-1.948,0-2.958,0C128.671,83.812,128.671,84.689,128.671,85.651z"/>
	<path fill="#040006" d="M60.529,80.525c-0.061,1.291,0,2.605-0.207,3.872c-0.353,2.131-1.96,3.238-3.932,3.202
		c-2.082-0.037-3.518-1.29-3.835-3.409c-0.158-1.035-0.109-2.094-0.134-3.141c-0.024-1.242-0.012-2.471,0-3.713
		c0-0.73,0.353-1.132,0.962-1.132c0.584,0,0.974,0.451,0.986,1.144c0.012,2.009-0.012,4.018,0.012,6.027
		c0.012,1.51,1.108,2.447,2.532,2.204c0.901-0.158,1.595-1.023,1.607-2.143c0.024-1.924,0.012-3.847,0.012-5.783
		c0-0.183-0.012-0.365,0.012-0.548c0.085-0.56,0.524-0.925,1.035-0.901c0.523,0.024,0.877,0.414,0.877,1.023
		c0.012,1.096,0,2.191,0,3.287C60.48,80.525,60.505,80.525,60.529,80.525z"/>
	<path fill="#040006" d="M2.419,81.852c0.597,0,1.157,0.012,1.717,0c1.23-0.025,1.644-0.84,1.753-1.839
		c0.097-0.889-0.524-1.668-1.497-1.814c-0.645-0.097-1.315-0.012-1.96-0.012C2.419,79.429,2.419,80.622,2.419,81.852z M2.395,83.885
		c0,0.852,0,1.705,0,2.544c0,0.694-0.39,1.157-0.95,1.169c-0.584,0.012-0.998-0.475-0.998-1.193c0-2.995,0-6.002,0-8.997
		c0-0.864,0.353-1.23,1.217-1.193c1.23,0.049,2.484,0.012,3.665,0.268c1.595,0.353,2.691,2.082,2.532,3.628
		c-0.219,2.131-1.437,3.482-3.287,3.652C3.868,83.824,3.162,83.837,2.395,83.885z"/>
	<path fill="#040006" d="M84.136,76.081c0.767,0.207,1.558,0.365,2.313,0.633c0.791,0.28,1.059,0.852,0.791,1.436
		c-0.256,0.56-0.816,0.682-1.559,0.341c-2.07-0.913-4.419,0.085-5.113,2.204c-0.499,1.534-0.134,2.898,1.047,3.969
		c1.218,1.083,2.618,1.218,4.127,0.621c0.292-0.122,0.706-0.219,0.962-0.097c0.28,0.134,0.621,0.548,0.596,0.803
		c-0.036,0.353-0.329,0.804-0.645,0.974c-1.899,1.083-4.639,0.731-6.27-0.755c-1.79-1.631-2.422-3.664-1.716-5.978
		c0.694-2.301,2.362-3.579,4.712-4.005c0.231-0.037,0.487,0,0.73,0C84.111,76.178,84.124,76.13,84.136,76.081z"/>
	<path fill="#040006" d="M70.732,76.069c0.816,0.244,1.655,0.438,2.459,0.743c0.645,0.244,0.852,0.815,0.597,1.376
		c-0.219,0.487-0.804,0.67-1.4,0.377c-1.899-0.925-3.908-0.134-4.858,1.315c-0.901,1.4-0.804,3.129,0.256,4.444
		c0.938,1.157,2.739,1.631,4.188,1.108c0.171-0.061,0.329-0.146,0.499-0.219c0.523-0.219,1.084-0.049,1.315,0.402
		c0.231,0.451,0.024,1.059-0.475,1.339c-1.851,1.071-4.59,0.804-6.233-0.633c-1.79-1.546-2.52-3.494-1.924-5.807
		c0.633-2.435,2.301-3.799,4.736-4.273c0.256-0.049,0.524-0.012,0.791-0.012C70.707,76.178,70.719,76.118,70.732,76.069z"/>
	<path fill="#040006" d="M141.685,87.647c-1.363-0.134-2.398-0.682-3.104-1.826c-0.378-0.621-0.292-1.242,0.207-1.558
		c0.511-0.329,1.023-0.171,1.449,0.511c0.463,0.743,1.169,0.913,1.948,0.779c0.682-0.122,1.132-0.56,1.351-1.242
		c0.171-0.523-0.048-0.901-0.438-1.144c-0.536-0.341-1.12-0.633-1.705-0.889c-0.889-0.39-1.704-0.852-2.155-1.753
		c-0.962-1.924,0.438-4.213,2.617-4.322c0.803-0.036,1.571,0.073,2.265,0.499c0.608,0.377,0.815,0.925,0.536,1.412
		c-0.292,0.523-0.877,0.633-1.51,0.268c-0.511-0.292-1.022-0.329-1.57-0.122c-0.791,0.304-0.962,1.181-0.304,1.729
		c0.256,0.219,0.596,0.316,0.901,0.475c0.707,0.377,1.498,0.657,2.118,1.132c2.252,1.716,1.133,4.687-0.815,5.539
		C142.915,87.404,142.282,87.489,141.685,87.647z"/>
	<path fill="#040006" d="M91.83,81.901c0-1.498,0-2.995,0-4.492c0-0.779,0.353-1.205,0.962-1.193
		c0.572,0.012,0.949,0.438,0.949,1.169c0.012,3.019,0.012,6.039,0,9.046c0,0.743-0.365,1.157-0.949,1.181
		c-0.597,0.012-0.962-0.438-0.962-1.205C91.83,84.896,91.83,83.398,91.83,81.901z"/>
</g>
</svg>
