<?xml version="1.0" encoding="utf-8"?>
<!-- Generator: Adobe Illustrator 23.0.0, SVG Export Plug-In . SVG Version: 6.00 Build 0)  -->
<svg version="1.1" id="Capa_1" xmlns="http://www.w3.org/2000/svg" xmlns:xlink="http://www.w3.org/1999/xlink" x="0px" y="0px"
	 viewBox="0 0 10.723 14.293" enable-background="new 0 0 10.723 14.293" xml:space="preserve">
<g>
	<path fill="#040006" d="M4.656,9.891L4.469,11.58c-0.008,0.084,0.017,0.167,0.075,0.232c0.056,0.064,0.137,0.101,0.22,0.101h1.192
		c0.084,0,0.165-0.036,0.22-0.101c0.056-0.064,0.084-0.148,0.075-0.232L6.066,9.891C6.371,9.67,6.555,9.319,6.555,8.933
		c0-0.656-0.533-1.192-1.192-1.192c-0.659,0-1.192,0.533-1.192,1.192C4.168,9.319,4.352,9.67,4.656,9.891z M5.36,8.339
		c0.329,0,0.595,0.268,0.595,0.595c0,0.229-0.128,0.433-0.338,0.533C5.502,9.522,5.436,9.642,5.449,9.768l0.173,1.547H5.098
		l0.173-1.547c0.014-0.126-0.053-0.246-0.167-0.301C4.894,9.366,4.765,9.162,4.765,8.933C4.765,8.604,5.031,8.339,5.36,8.339z"/>
	<path fill="#040006" d="M10.421,5.36H9.528V4.168C9.528,1.87,7.657,0,5.36,0C3.063,0,1.192,1.87,1.192,4.168V5.36H0.299
		C0.134,5.36,0,5.494,0,5.659v7.445c0,0.656,0.533,1.189,1.192,1.189h8.339c0.656,0,1.192-0.533,1.192-1.192V5.659
		C10.72,5.494,10.586,5.36,10.421,5.36z M1.787,4.168c0-1.971,1.602-3.573,3.573-3.573c1.971,0,3.573,1.602,3.573,3.573V5.36H8.339
		V4.168c0-1.642-1.337-2.979-2.979-2.979c-1.642,0-2.979,1.337-2.979,2.979V5.36H1.787V4.168z M7.741,4.168V5.36H2.979V4.168
		c0-1.315,1.069-2.381,2.381-2.381C6.672,1.787,7.741,2.856,7.741,4.168z M10.125,13.101c0,0.329-0.268,0.595-0.594,0.595H1.192
		c-0.33,0-0.595-0.268-0.595-0.595V5.955h9.528V13.101z"/>
</g>
</svg>
