<?xml version="1.0" encoding="utf-8"?>
<!-- Generator: Adobe Illustrator 23.0.0, SVG Export Plug-In . SVG Version: 6.00 Build 0)  -->
<svg version="1.1" id="Capa_1" xmlns="http://www.w3.org/2000/svg" xmlns:xlink="http://www.w3.org/1999/xlink" x="0px" y="0px"
	 viewBox="0 0 13.721 13.073" enable-background="new 0 0 13.721 13.073" xml:space="preserve">
<g>
	<path fill="#040006" d="M6.846,7.339c2.029,0,3.663-1.648,3.663-3.677S8.875,0,6.846,0C4.818,0,3.169,1.648,3.169,3.663
		S4.818,7.339,6.846,7.339z M6.846,0.958c1.493,0,2.705,1.211,2.705,2.705S8.339,6.367,6.846,6.367
		c-1.493,0-2.705-1.211-2.705-2.705S5.353,0.958,6.846,0.958z"/>
	<path fill="#040006" d="M9.114,7.987H4.606C2.071,7.973,0,10.044,0,12.594c0,0.268,0.211,0.479,0.479,0.479h12.763
		c0.268,0,0.479-0.211,0.479-0.479C13.721,10.058,11.664,7.987,9.114,7.987z M1,12.101C1.24,10.34,2.761,8.945,4.606,8.945h4.508
		c1.845,0,3.367,1.38,3.606,3.155H1z"/>
</g>
</svg>
